<svg width="218" height="67" viewBox="0 0 218 67" fill="none" xmlns="http://www.w3.org/2000/svg">
<path d="M37.8477 14.441C38.6593 15.0863 39.408 15.7732 40.1415 16.5054C40.2849 16.6462 40.4283 16.7869 40.5761 16.9319C43.5229 20.045 45.1532 24.4175 45.0526 28.6742C44.4198 34.7674 40.559 40.5125 37.1596 45.4073C37.0578 45.554 36.956 45.7007 36.8511 45.8519C35.1458 48.2973 33.3757 50.7207 31.4251 52.9769C31.3494 52.9769 31.2737 52.9769 31.1957 52.9769C31.1727 51.9493 31.1562 50.9218 31.1453 49.894C31.1407 49.5457 31.1345 49.1973 31.1265 48.849C31.0503 45.4562 31.7056 43.0641 33.6329 40.2176C33.921 39.7773 34.2083 39.3365 34.4948 38.8951C34.6356 38.6785 34.7765 38.4619 34.9216 38.2388C37.3181 34.4901 39.6887 30.5121 38.9946 25.91C38.2845 22.9432 36.5204 20.4341 33.9483 18.7992C30.9097 17.0199 27.5595 16.3121 24.0715 17.0135C21.9353 17.5837 20.2306 18.4841 18.5798 19.9461C18.3722 20.1098 18.3722 20.1098 18.1604 20.2768C16.4311 21.7686 15.0583 24.5497 14.847 26.8105C14.6939 31.9151 17.7682 36.55 20.5488 40.6282C22.6426 43.7249 23.019 46.5752 22.9667 50.2817C22.9646 50.5646 22.9625 50.8476 22.9604 51.1391C22.9551 51.8282 22.9476 52.5172 22.938 53.2063C18.5186 48.8713 15.0724 43.2666 12.1571 37.8378C12.0342 37.613 12.0342 37.613 11.9088 37.3837C9.52706 33.0044 8.2336 28.4039 9.59543 23.4361C10.5035 20.9366 11.7349 18.7062 13.5334 16.7348C13.652 16.5953 13.7706 16.4557 13.8927 16.3119C20.0378 9.53538 30.6631 9.52987 37.8477 14.441Z" fill="#FE8C38"/>
<path d="M31.1957 19.258C33.7617 20.667 35.7616 22.7971 36.602 25.668C37.2014 28.5283 36.6946 31.3422 35.209 33.8272C33.8344 35.7748 31.7344 37.3865 29.3607 37.8378C29.0579 37.8378 28.7551 37.8378 28.4431 37.8378C28.4431 43.5906 28.4431 49.3435 28.4431 55.2707C30.2598 55.2707 32.0765 55.2707 33.9483 55.2707C33.9483 56.6332 33.9483 57.9957 33.9483 59.3995C29.3308 59.3995 24.7134 59.3995 19.9561 59.3995C19.9561 58.1127 19.9561 56.8259 19.9561 55.5001C21.8485 55.5001 23.7408 55.5001 25.6906 55.5001C25.6906 49.6715 25.6906 43.843 25.6906 37.8378C25.0093 37.7621 24.3281 37.6864 23.6262 37.6084C20.9765 36.5445 18.9726 34.7168 17.8155 32.1006C16.9364 29.5753 16.7737 26.9087 17.8334 24.4164C20.2673 19.5864 26.0062 16.7251 31.1957 19.258Z" fill="#FCDEC5"/>
<path d="M186.715 22.4693C196.416 22.4693 196.416 22.4693 197.941 23.7022C199.251 25.3697 199.538 26.7896 199.331 28.892C198.928 30.2616 198.172 31.0487 197.038 31.8739C197.011 32.401 197.011 32.401 197.267 33.0208C197.713 33.3869 198.174 33.6968 198.664 34.0019C199.468 34.7275 199.576 35.6499 199.638 36.6882C199.685 38.9363 199.631 40.6807 198.027 42.3967C194.574 44.6116 190.844 43.5723 186.715 43.5723C186.715 36.6083 186.715 29.6443 186.715 22.4693Z" fill="#020202"/>
<path d="M131.894 21.7811C133.483 21.7811 135.073 21.7811 136.711 21.7811C136.824 25.0739 136.824 25.0739 136.94 28.4332C137.621 27.8655 137.621 27.8655 138.316 27.2863C139.419 26.735 141.115 26.8739 142.278 27.2056C143.301 27.7283 143.915 28.5141 144.28 29.5801C144.405 30.7025 144.387 31.8207 144.37 32.9482C144.368 33.275 144.367 33.6019 144.366 33.9287C144.362 34.7844 144.353 35.6399 144.343 36.4956C144.334 37.3705 144.33 38.2454 144.325 39.1204C144.315 40.8338 144.299 42.5471 144.28 44.2604C142.69 44.2604 141.101 44.2604 139.463 44.2604C139.457 43.8725 139.452 43.4846 139.446 43.0849C139.426 41.8059 139.406 40.5268 139.385 39.2478C139.373 38.4721 139.36 37.6963 139.349 36.9205C139.336 36.0295 139.321 35.1384 139.306 34.2474C139.302 33.9676 139.299 33.6878 139.295 33.3996C139.288 33.0138 139.288 33.0138 139.281 32.6203C139.277 32.3926 139.274 32.1649 139.27 31.9304C139.291 31.4221 139.291 31.4221 139.004 31.1857C138.211 31.1093 138.211 31.1093 137.399 31.1857C136.891 31.9471 136.879 32.2004 136.867 33.089C136.862 33.337 136.858 33.5849 136.853 33.8404C136.849 34.2414 136.849 34.2414 136.845 34.6506C136.841 34.9246 136.836 35.1985 136.831 35.4808C136.818 36.3572 136.807 37.2337 136.797 38.1101C136.788 38.7038 136.779 39.2974 136.77 39.891C136.748 41.3474 136.728 42.8039 136.711 44.2604C135.121 44.2604 133.531 44.2604 131.894 44.2604C131.894 36.8422 131.894 29.4241 131.894 21.7811Z" fill="black"/>
<path d="M82.5768 21.7811C84.2421 21.7811 85.9074 21.7811 87.6232 21.7811C87.6989 25.2631 87.7746 28.7451 87.8526 32.3326C88.7609 30.743 89.6693 29.1534 90.6051 27.5157C92.3461 27.5157 94.0871 27.5157 95.8809 27.5157C95.5533 28.3347 95.3627 28.8086 94.8657 29.4708C94.7585 29.6151 94.6513 29.7593 94.5409 29.908C94.4296 30.0553 94.3182 30.2025 94.2035 30.3542C93.8758 30.793 93.5484 31.2319 93.2236 31.6729C93.0078 31.959 92.7843 32.2396 92.5536 32.5139C92.3933 32.7124 92.3933 32.7124 92.2296 32.915C92.1323 33.0297 92.035 33.1443 91.9347 33.2624C91.5933 34.0971 91.8305 34.9181 92.1431 35.7394C92.3473 36.1925 92.5655 36.6357 92.7905 37.0788C92.8706 37.2413 92.9506 37.4038 93.0331 37.5712C93.2873 38.0864 93.5445 38.6001 93.8021 39.1137C94.0584 39.6283 94.314 40.1432 94.5687 40.6586C94.7267 40.978 94.8857 41.2969 95.0459 41.6153C95.4831 42.4949 95.7963 43.3184 96.1103 44.2604C94.445 44.2604 92.7797 44.2604 91.0639 44.2604C90.0576 42.3088 89.1791 40.3122 88.3113 38.2965C88.0843 38.4101 88.0843 38.4101 87.8526 38.5259C87.7769 40.4183 87.7012 42.3107 87.6232 44.2604C85.9579 44.2604 84.2926 44.2604 82.5768 44.2604C82.5768 36.8422 82.5768 29.4241 82.5768 21.7811Z" fill="#070606"/>
<path d="M170.659 22.4693C172.4 22.4693 174.141 22.4693 175.935 22.4693C176.281 23.3366 176.504 24.0272 176.683 24.9253C176.735 25.184 176.787 25.4427 176.841 25.7093C176.925 26.128 176.925 26.128 177.01 26.5552C177.132 27.1568 177.254 27.7583 177.377 28.3597C177.409 28.5154 177.441 28.6711 177.473 28.8316C177.829 30.5706 178.206 32.3049 178.587 34.0387C178.637 34.2691 178.637 34.2691 178.689 34.5042C179.029 36.0582 179.374 37.6111 179.732 39.1612C179.786 39.3951 179.84 39.629 179.895 39.87C179.995 40.2981 180.095 40.7259 180.196 41.1534C180.24 41.3402 180.283 41.5269 180.328 41.7193C180.366 41.8792 180.403 42.0391 180.442 42.2039C180.522 42.6548 180.522 42.6548 180.522 43.5723C179.235 43.5723 177.949 43.5723 176.623 43.5723C176.199 42.0013 175.935 40.8593 175.935 39.2141C174.118 39.2141 172.301 39.2141 170.429 39.2141C170.429 39.8196 170.429 40.4252 170.429 41.0491C170.313 41.9005 170.139 42.7288 169.971 43.5723C168.684 43.5723 167.397 43.5723 166.071 43.5723C166.449 41.1382 166.956 38.7392 167.476 36.3325C167.543 36.0197 167.543 36.0197 167.612 35.7006C168.265 32.667 168.935 29.6376 169.627 26.6125C169.666 26.4402 169.705 26.268 169.746 26.0905C169.856 25.6076 169.967 25.1249 170.078 24.6422C170.172 24.235 170.172 24.235 170.268 23.8197C170.429 23.1575 170.429 23.1575 170.659 22.4693Z" fill="#040404"/>
<path d="M26.6081 22.928C27.2308 23.0097 27.47 23.0898 27.876 23.583C27.9827 23.7595 28.0894 23.9361 28.1994 24.1179C28.3782 24.3987 28.3782 24.3987 28.5605 24.6851C28.7295 24.9508 28.7295 24.9508 28.9019 25.2218C30.011 26.7622 31.5495 27.8566 33.2601 28.6625C33.1793 29.2903 33.1029 29.5231 32.5971 29.9223C32.4185 30.027 32.2399 30.1317 32.0559 30.2395C30.2899 31.3628 29.1301 33.0465 28.5455 35.0649C28.3754 35.861 28.4019 36.6691 28.396 37.48C28.3938 37.6748 28.3915 37.8696 28.3892 38.0702C28.3819 38.7131 28.3762 39.356 28.3706 39.9989C28.3658 40.445 28.361 40.8911 28.3561 41.3373C28.3435 42.5108 28.3321 43.6843 28.3211 44.8578C28.3095 46.0556 28.2968 47.2533 28.2841 48.451C28.2594 50.8007 28.2363 53.1503 28.2138 55.5C30.1061 55.5 31.9985 55.5 33.9483 55.5C33.9483 56.7868 33.9483 58.0737 33.9483 59.3995C29.3308 59.3995 24.7134 59.3995 19.9561 59.3995C19.9561 58.1126 19.9561 56.8258 19.9561 55.5C21.8485 55.5 23.7408 55.5 25.6906 55.5C25.6865 52.9156 25.6776 50.3314 25.6603 47.7471C25.6524 46.5468 25.6467 45.3466 25.6457 44.1464C25.6447 42.9862 25.6382 41.8262 25.6279 40.6661C25.6249 40.2254 25.6239 39.7846 25.6249 39.3438C25.631 36.0469 25.3469 33.4383 22.9694 30.9339C22.3541 30.3862 21.7109 29.9751 20.9811 29.5962C20.8699 29.5152 20.7588 29.4341 20.6442 29.3507C20.6442 29.1236 20.6442 28.8965 20.6442 28.6625C21.0815 28.3507 21.0815 28.3507 21.6764 28.0317C23.9469 26.7206 25.2441 25.1372 26.6081 22.928Z" fill="#FE8B37"/>
<path d="M75.1139 27.1599C76.2981 27.8843 76.8981 28.6635 77.3871 29.9528C77.5305 30.7269 77.5305 30.7269 77.5305 31.8738C76.0166 31.8738 74.5026 31.8738 72.9429 31.8738C72.7158 31.2683 72.4887 30.6627 72.2547 30.0388C72.0012 29.7361 72.0012 29.7361 71.3659 29.7521C70.6657 29.7521 70.6657 29.7521 70.219 30.0818C69.8575 30.6642 69.8295 30.971 69.9609 31.6445C71.0216 32.6737 72.3369 33.1258 73.6839 33.6686C75.1869 34.3026 76.3903 35.0735 77.2867 36.4614C77.8408 38.0162 77.844 40.1056 77.1864 41.6225C76.4514 42.8328 75.3592 43.5949 74.0423 44.0632C71.9594 44.5352 69.2764 44.687 67.3661 43.6161C66.195 42.7893 65.3258 41.7463 64.9146 40.3609C64.9146 39.7553 64.9146 39.1498 64.9146 38.5259C66.5042 38.5259 68.0938 38.5259 69.7315 38.5259C69.8829 39.2071 70.0343 39.8884 70.1903 40.5903C70.8259 40.9081 71.3219 40.8627 72.0253 40.8197C72.2524 40.6683 72.4795 40.5169 72.7135 40.3609C72.8473 39.5678 72.8473 39.5678 72.7135 38.7552C72.0115 38.0805 71.1718 37.7898 70.2763 37.4363C68.3896 36.6538 66.3449 35.6919 65.3231 33.8236C64.8653 32.3585 64.856 30.6785 65.3393 29.2198C66.1058 27.8484 67.3438 27.1353 68.7701 26.5739C70.9146 25.9728 73.1186 26.2066 75.1139 27.1599Z" fill="#040404"/>
<path d="M215.82 22.9505C216.763 23.6496 217.34 24.5733 217.682 25.6806C217.75 26.3896 217.726 27.0303 217.682 27.7451C216.546 27.7451 215.411 27.7451 214.241 27.7451C214.184 27.4612 214.128 27.1773 214.069 26.8849C213.855 26.0192 213.583 25.5533 212.865 24.9925C212.218 24.6691 211.748 24.7068 211.03 24.7631C210.178 25.1679 210.178 25.1679 209.653 25.91C209.573 26.4144 209.573 26.4144 209.553 26.9852C209.532 27.2704 209.532 27.2704 209.511 27.5614C209.768 28.72 210.559 29.47 211.504 30.1516C212.022 30.477 212.547 30.7843 213.08 31.0854C215.397 32.4131 217.135 33.564 217.911 36.2321C218.118 38.2394 218.022 40.1914 216.994 41.9666C215.99 43.1494 214.899 43.9195 213.319 44.0774C208.645 44.2888 208.645 44.2888 207.127 42.929C205.475 41.1496 205.477 39.7563 205.525 37.379C206.736 37.379 207.947 37.379 209.195 37.379C209.218 37.7339 209.242 38.0887 209.266 38.4543C209.36 39.4024 209.499 40.0598 210.112 40.8197C210.958 41.2428 211.941 41.161 212.865 41.0491C213.456 40.6167 213.69 40.3166 214.012 39.6728C214.13 38.5919 214.127 37.6596 213.711 36.6479C212.967 35.8692 212.167 35.3644 211.248 34.8093C210.395 34.2902 209.582 33.7262 208.771 33.1445C208.398 32.8781 208.017 32.6238 207.632 32.3757C206.431 31.175 205.725 29.3999 205.697 27.7164C205.716 26.1014 206.054 24.8922 206.944 23.5445C209.429 21.1696 212.954 21.2796 215.82 22.9505Z" fill="#040404"/>
<path d="M124.324 27.9745C125.222 28.7167 125.711 29.4267 126.159 30.4976C126.246 31.5772 126.19 32.6236 126.159 33.709C124.645 33.709 123.131 33.709 121.571 33.709C121.527 33.0668 121.482 32.4247 121.437 31.7825C121.396 31.1502 121.396 31.1502 120.883 30.727C120.195 30.6315 120.195 30.6315 119.507 30.727C118.911 31.6218 118.982 32.3774 118.987 33.4151C118.987 33.611 118.986 33.807 118.986 34.0089C118.986 34.423 118.987 34.8372 118.988 35.2514C118.991 35.8857 118.989 36.5198 118.986 37.1542C118.986 37.5565 118.986 37.9588 118.987 38.3611C118.986 38.5511 118.986 38.741 118.985 38.9367C118.992 39.8344 118.998 40.2855 119.507 41.0491C120.113 41.0491 120.718 41.0491 121.342 41.0491C121.493 39.838 121.645 38.6269 121.801 37.3791C123.315 37.3791 124.829 37.3791 126.388 37.3791C126.505 41.4153 126.505 41.4153 125.17 43.1852C123.68 44.6755 122.107 44.7607 120.124 44.7622C119.933 44.765 119.743 44.7678 119.547 44.7707C117.908 44.7746 116.494 44.6257 115.227 43.4633C114.023 42.0937 113.863 40.6335 113.872 38.8718C113.871 38.6457 113.869 38.4195 113.868 38.1865C113.866 37.7103 113.867 37.2341 113.87 36.758C113.873 36.035 113.865 35.3127 113.856 34.5898C113.856 34.1247 113.857 33.6597 113.858 33.1947C113.855 32.9815 113.852 32.7682 113.848 32.5486C113.871 30.9736 114.268 29.7474 115.149 28.4332C117.241 26.4208 121.988 26.2829 124.324 27.9745Z" fill="#020202"/>
<path d="M101.845 22.6987C103.434 22.6987 105.024 22.6987 106.662 22.6987C106.662 24.2126 106.662 25.7265 106.662 27.2863C107.419 27.2863 108.176 27.2863 108.956 27.2863C108.956 28.4974 108.956 29.7085 108.956 30.9564C108.199 30.9564 107.442 30.9564 106.662 30.9564C106.737 34.1356 106.813 37.3148 106.891 40.5903C107.572 40.666 108.254 40.7417 108.956 40.8197C108.956 41.9551 108.956 43.0906 108.956 44.2604C107.945 44.4625 107.011 44.5472 105.988 44.5615C105.83 44.5681 105.671 44.5748 105.508 44.5816C104.322 44.5962 103.677 44.3114 102.762 43.5723C102.01 42.716 101.816 42.003 101.819 40.8778C101.819 40.6574 101.819 40.437 101.819 40.21C101.82 39.9727 101.821 39.7354 101.822 39.4909C101.823 39.2475 101.823 39.0041 101.823 38.7533C101.825 37.975 101.828 37.1968 101.83 36.4185C101.832 35.8912 101.833 35.3639 101.834 34.8366C101.836 33.5432 101.84 32.2498 101.845 30.9564C101.164 30.9564 100.482 30.9564 99.7804 30.9564C99.7804 29.7452 99.7804 28.5341 99.7804 27.2863C100.462 27.2863 101.143 27.2863 101.845 27.2863C101.845 25.7724 101.845 24.2585 101.845 22.6987Z" fill="#040403"/>
<path d="M150.244 22.4693C151.606 22.4693 152.969 22.4693 154.373 22.4693C154.373 28.3736 154.373 34.2778 154.373 40.361C156.492 40.361 158.612 40.361 160.795 40.361C160.795 41.4207 160.795 42.4804 160.795 43.5723C157.313 43.5723 153.831 43.5723 150.244 43.5723C150.244 36.6083 150.244 29.6443 150.244 22.4693Z" fill="#080808"/>
<path d="M172.723 25.2219C173.102 25.2219 173.48 25.2219 173.87 25.2219C174.301 27.5629 174.692 29.9094 175.06 32.261C175.101 32.5184 175.142 32.7757 175.184 33.0409C175.241 33.4084 175.241 33.4084 175.299 33.7833C175.333 34.0012 175.367 34.219 175.402 34.4434C175.476 35.0853 175.476 35.0853 175.476 36.4615C174.038 36.4615 172.599 36.4615 171.118 36.4615C171.118 35.0697 171.154 33.9205 171.419 32.5907C171.482 32.2536 171.545 31.9164 171.608 31.5791C171.657 31.317 171.657 31.317 171.707 31.0495C171.914 29.8939 172.087 28.7325 172.264 27.5718C172.304 27.3112 172.304 27.3112 172.345 27.0453C172.368 26.8923 172.392 26.7394 172.416 26.5818C172.497 26.1217 172.605 25.6737 172.723 25.2219Z" fill="#F6EFE5"/>
<path d="M190.615 33.9384C194.091 34.2057 194.091 34.2057 194.973 34.8559C195.877 36.1014 195.808 37.2699 195.661 38.7553C195.247 39.9991 195.01 40.1097 193.826 40.8198C192.766 40.8198 191.707 40.8198 190.615 40.8198C190.615 38.5489 190.615 36.278 190.615 33.9384Z" fill="#F8F1E7"/>
<path d="M22.4792 61.6933C25.4314 61.6933 28.3835 61.6933 31.4251 61.6933C31.1727 63.4597 30.7743 64.3025 29.452 65.4539C28.3534 66.1906 27.2054 66.2507 25.9199 66.0515C24.3567 65.5501 23.5728 64.6966 22.766 63.2846C22.4792 62.6108 22.4792 62.6108 22.4792 61.6933Z" fill="#FE8F3D"/>
<path d="M190.615 25.2219C193.597 25.2219 193.597 25.2219 194.744 25.91C195.284 26.7207 195.271 27.0997 195.274 28.0605C195.278 28.3177 195.282 28.575 195.286 28.84C195.193 29.6619 195.022 30.0787 194.514 30.727C193.597 31.1858 193.597 31.1858 190.615 31.1858C190.615 29.2177 190.615 27.2496 190.615 25.2219Z" fill="#F8F1E7"/>
<path d="M53.5746 24.4334C53.9043 24.9925 53.9043 24.9925 53.89 25.824C53.6749 26.5982 53.6749 26.5982 52.9868 27.0569C51.6097 27.1534 50.2612 26.9368 48.901 26.7415C48.573 26.6981 48.573 26.6981 48.2384 26.6537C48.0298 26.6241 47.8211 26.5946 47.6062 26.5641C47.3224 26.5245 47.3224 26.5245 47.0329 26.484C46.5642 26.3688 46.5642 26.3688 46.1054 25.91C46.1914 25.3079 46.1914 25.3079 46.3348 24.7631C47.0991 24.6462 47.8638 24.5324 48.6286 24.419C48.8429 24.3862 49.0573 24.3534 49.2782 24.3196C52.5903 23.8332 52.5903 23.8332 53.5746 24.4334Z" fill="#FE8E3D"/>
<path d="M2.75256 24.1323C2.92644 24.1443 3.10032 24.1563 3.27947 24.1686C7.0286 24.4515 7.0286 24.4515 7.79892 25.2218C7.67604 26.0329 7.67604 26.0329 7.34016 26.3687C6.57216 26.5235 5.7934 26.6185 5.01769 26.7271C4.6948 26.7748 4.6948 26.7748 4.36539 26.8235C3.20865 26.9879 2.08556 27.1443 0.91752 27.0569C0.34407 26.5695 0.34407 26.5695 0 25.91C0.0143363 25.1788 0.0143363 25.1788 0.22938 24.5337C1.10477 23.9501 1.74918 24.0555 2.75256 24.1323Z" fill="#FE8E3C"/>
<path d="M38.9803 3.10101C39.6828 3.20136 39.6828 3.20136 40.2419 3.57411C40.6003 4.11888 40.6003 4.11888 40.6074 4.70846C40.2567 5.87493 39.541 6.68118 38.7796 7.61693C38.6313 7.8038 38.483 7.99068 38.3302 8.18321C37.2684 9.51521 37.2684 9.51521 36.7008 10.0828C36.0987 9.99675 36.0987 9.99675 35.5539 9.85339C35.6789 8.45157 36.1172 7.29822 36.6721 6.01127C36.7529 5.81641 36.8336 5.62156 36.9168 5.4208C37.8298 3.27236 37.8298 3.27236 38.9803 3.10101Z" fill="#FE8E3B"/>
<path d="M15.5979 3.20138C16.6746 3.98549 17.026 5.20076 17.4902 6.39837C17.5736 6.60343 17.657 6.80848 17.7429 7.01976C18.1358 8.01451 18.3998 8.77132 18.3504 9.85341C17.9719 9.9291 17.5935 10.0048 17.2035 10.0828C16.531 9.28536 15.8632 8.4844 15.2 7.67922C14.9544 7.38388 14.7032 7.09309 14.451 6.80337C13.8174 6.04188 13.4496 5.49951 13.4044 4.49165C13.447 4.21725 13.4896 3.94285 13.5334 3.66014C14.3343 3.12626 14.6556 3.08601 15.5979 3.20138Z" fill="#FE8D3B"/>
<path d="M49.0873 11.9178C49.6761 12.5066 49.6276 12.9542 49.6742 13.7591C49.5461 14.2116 49.5461 14.2116 49.1026 14.5539C48.1538 15.0204 47.1935 15.4481 46.2201 15.8603C46.027 15.9447 45.8339 16.0291 45.635 16.1161C45.4472 16.1958 45.2595 16.2755 45.066 16.3576C44.8967 16.4301 44.7275 16.5026 44.553 16.5773C43.9773 16.7544 43.4931 16.7625 42.8941 16.7348C42.8184 16.3563 42.7427 15.9778 42.6647 15.5879C43.257 15.105 43.8497 14.6224 44.4424 14.1399C44.6934 13.9352 44.6934 13.9352 44.9495 13.7264C45.1935 13.5279 45.1935 13.5279 45.4423 13.3255C45.6658 13.1435 45.6658 13.1435 45.8937 12.9578C47.0857 12.0069 47.5509 11.7939 49.0873 11.9178Z" fill="#FE8D3B"/>
<path d="M27.2102 0.00438052C27.9844 0.219424 27.9844 0.219424 28.4431 0.907565C28.4747 3.00366 28.2392 5.29542 27.755 7.33021C27.6036 7.4816 27.4522 7.63299 27.2962 7.78897C26.4852 7.66609 26.4852 7.66609 26.1493 7.33021C26.0811 6.97276 26.0258 6.61282 25.9764 6.2523C25.9461 6.03157 25.9158 5.81084 25.8846 5.58342C25.8537 5.35087 25.8228 5.11831 25.7909 4.87871C25.7591 4.65059 25.7274 4.42247 25.6946 4.18743C25.2881 1.17761 25.2881 1.17761 25.8196 0.348451C26.3787 -0.00995574 26.3787 -0.00995573 27.2102 0.00438052Z" fill="#FE8D3B"/>
<path d="M4.81699 11.9178C5.71362 11.7833 6.30131 11.7277 7.10575 12.1638C7.56304 12.5021 7.98959 12.8597 8.41539 13.2368C8.56161 13.3604 8.70782 13.484 8.85847 13.6113C9.14214 13.8514 9.42442 14.0931 9.70509 14.3366C10.2057 14.7677 10.7208 15.1792 11.2396 15.5879C11.1639 15.9664 11.0882 16.3449 11.0103 16.7348C9.60843 16.6098 8.45508 16.1716 7.16814 15.6166C6.97328 15.5359 6.77842 15.4552 6.57766 15.372C4.90423 14.6608 4.90423 14.6608 4.35823 13.9823C4.26079 13.0469 4.28647 12.7136 4.81699 11.9178Z" fill="#FE8D3A"/>
</svg>
